<svg width="264" height="36" viewBox="0 0 264 36" fill="none" xmlns="http://www.w3.org/2000/svg">
<path d="M31.4973 33.824C30.9746 34.3467 30.2093 34.7387 29.2013 35C28.2306 35.2987 27.0546 35.448 25.6733 35.448C24.2919 35.448 22.9853 35.2427 21.7533 34.832C20.5213 34.4213 19.5133 33.432 18.7293 31.864L13.1853 20.552C12.6253 19.3947 12.1213 18.312 11.6733 17.304C11.2253 16.2587 10.7399 15.064 10.2173 13.72L9.88128 13.776C10.0306 15.792 10.1053 17.8453 10.1053 19.936C10.1426 22.0267 10.1613 24.08 10.1613 26.096V34.776C9.75062 34.888 9.11595 35 8.25728 35.112C7.43595 35.224 6.61461 35.28 5.79328 35.28C4.97195 35.28 4.24395 35.224 3.60928 35.112C2.97461 35 2.45195 34.776 2.04128 34.44C1.63061 34.104 1.31328 33.656 1.08928 33.096C0.865281 32.4987 0.753282 31.7333 0.753282 30.8V2.8C1.27595 2.05333 2.07861 1.49333 3.16128 1.12C4.24395 0.746666 5.40128 0.559999 6.63328 0.559999C8.01462 0.559999 9.32128 0.783999 10.5533 1.232C11.8226 1.64267 12.8306 2.61333 13.5773 4.144L19.1773 15.456C19.7373 16.6133 20.2413 17.7147 20.6893 18.76C21.1373 19.768 21.6226 20.944 22.1453 22.288L22.4253 22.232C22.2759 20.216 22.1826 18.2 22.1453 16.184C22.1079 14.168 22.0893 12.152 22.0893 10.136V1.064C22.4999 0.951999 23.1159 0.839998 23.9373 0.727997C24.7959 0.615999 25.636 0.559999 26.4573 0.559999C28.0999 0.559999 29.3506 0.858666 30.2093 1.456C31.0679 2.016 31.4973 3.21066 31.4973 5.04V33.824ZM69.5051 29.456C69.5051 30.6133 69.2998 31.472 68.8891 32.032C68.4784 32.592 67.8251 33.1333 66.9291 33.656C66.4064 33.9547 65.7531 34.2533 64.9691 34.552C64.1851 34.8133 63.3264 35.0373 62.3931 35.224C61.4598 35.448 60.4704 35.616 59.4251 35.728C58.4171 35.84 57.4091 35.896 56.4011 35.896C53.7131 35.896 51.1931 35.5413 48.8411 34.832C46.4891 34.0853 44.4358 32.984 42.6811 31.528C40.9638 30.0347 39.6011 28.1867 38.5931 25.984C37.5851 23.7813 37.0811 21.224 37.0811 18.312C37.0811 15.2507 37.6224 12.5813 38.7051 10.304C39.8251 8.02667 41.2811 6.14133 43.0731 4.648C44.9024 3.11733 46.9744 1.97867 49.2891 1.232C51.6411 0.485332 54.0491 0.111999 56.5131 0.111999C60.0598 0.111999 62.8598 0.690666 64.9131 1.848C67.0038 2.968 68.0491 4.44267 68.0491 6.272C68.0491 7.24267 67.8064 8.08267 67.3211 8.792C66.8358 9.50133 66.2758 10.0613 65.6411 10.472C64.7078 9.912 63.5318 9.37067 62.1131 8.848C60.7318 8.288 59.1638 8.008 57.4091 8.008C54.2731 8.008 51.7718 8.904 49.9051 10.696C48.0758 12.488 47.1611 14.9707 47.1611 18.144C47.1611 19.8613 47.4038 21.3547 47.8891 22.624C48.4118 23.856 49.1024 24.8827 49.9611 25.704C50.8198 26.488 51.8091 27.0853 52.9291 27.496C54.0491 27.8693 55.2438 28.056 56.5131 28.056C57.3344 28.056 58.0624 27.9813 58.6971 27.832C59.3318 27.6827 59.8171 27.5147 60.1531 27.328V22.064H54.1611C53.9371 21.6533 53.7131 21.112 53.4891 20.44C53.3024 19.768 53.2091 19.0587 53.2091 18.312C53.2091 16.968 53.5078 15.9973 54.1051 15.4C54.7398 14.8027 55.5424 14.504 56.5131 14.504H65.9771C67.0971 14.504 67.9558 14.8213 68.5531 15.456C69.1878 16.0533 69.5051 16.912 69.5051 18.032V29.456ZM83.7195 2.072C84.3541 1.69866 85.3061 1.344 86.5755 1.008C87.8821 0.671997 89.1888 0.503997 90.4955 0.503997C92.3621 0.503997 94.0048 0.783998 95.4235 1.344C96.8795 1.86667 97.8128 2.70667 98.2235 3.864C98.8955 5.80533 99.6235 8.064 100.407 10.64C101.191 13.216 101.975 15.8853 102.759 18.648C103.543 21.3733 104.309 24.08 105.055 26.768C105.802 29.4187 106.455 31.7707 107.015 33.824C106.567 34.3467 105.895 34.7573 104.999 35.056C104.103 35.392 103.039 35.56 101.807 35.56C100.911 35.56 100.146 35.4853 99.5115 35.336C98.9141 35.1867 98.4101 34.9627 97.9995 34.664C97.6261 34.3653 97.3088 33.9733 97.0475 33.488C96.8235 33.0027 96.6181 32.4427 96.4315 31.808L95.4235 27.944H85.2875C84.9888 29.064 84.6901 30.2213 84.3915 31.416C84.0928 32.6107 83.7941 33.768 83.4955 34.888C82.9728 35.0747 82.4128 35.224 81.8155 35.336C81.2555 35.4853 80.5648 35.56 79.7435 35.56C77.8395 35.56 76.4208 35.2427 75.4875 34.608C74.5915 33.936 74.1435 33.0213 74.1435 31.864C74.1435 31.3413 74.2181 30.8187 74.3675 30.296C74.5168 29.7733 74.6848 29.1573 74.8715 28.448C75.1328 27.44 75.4875 26.1893 75.9355 24.696C76.4208 23.2027 76.9435 21.5973 77.5035 19.88C78.0635 18.1253 78.6608 16.3333 79.2955 14.504C79.9301 12.6747 80.5275 10.9573 81.0875 9.352C81.6475 7.70933 82.1515 6.25333 82.5995 4.984C83.0848 3.71466 83.4581 2.744 83.7195 2.072ZM90.4395 9.296C89.9168 10.864 89.3195 12.6187 88.6475 14.56C88.0128 16.464 87.4341 18.4053 86.9115 20.384H93.8555C93.3328 18.368 92.7915 16.408 92.2315 14.504C91.7088 12.5627 91.2235 10.8267 90.7755 9.296H90.4395ZM118.476 1.064C118.886 0.989332 119.54 0.895998 120.436 0.784C121.332 0.634666 122.19 0.559999 123.012 0.559999C123.87 0.559999 124.617 0.634666 125.252 0.784C125.924 0.895998 126.484 1.12 126.932 1.456C127.38 1.792 127.716 2.25867 127.94 2.856C128.164 3.45333 128.276 4.23733 128.276 5.208V25.928C128.276 29.2507 127.324 31.752 125.42 33.432C123.516 35.0747 120.716 35.896 117.02 35.896C115.078 35.896 113.51 35.5973 112.316 35C111.457 34.5893 110.822 34.0293 110.412 33.32C110.038 32.6107 109.852 31.808 109.852 30.912C109.852 30.1653 109.945 29.512 110.132 28.952C110.356 28.392 110.617 27.944 110.916 27.608C111.625 27.7573 112.222 27.8693 112.708 27.944C113.23 27.9813 113.79 28 114.388 28C115.844 28 116.889 27.6453 117.524 26.936C118.158 26.1893 118.476 25.1067 118.476 23.688V1.064ZM145.194 34.776C144.783 34.888 144.13 35 143.234 35.112C142.375 35.224 141.517 35.28 140.658 35.28C139.799 35.28 139.034 35.2053 138.362 35.056C137.727 34.944 137.186 34.72 136.738 34.384C136.29 34.048 135.954 33.5813 135.73 32.984C135.506 32.3867 135.394 31.6027 135.394 30.632V1.064C135.805 0.989332 136.458 0.895998 137.354 0.784C138.25 0.634666 139.109 0.559999 139.93 0.559999C140.789 0.559999 141.535 0.634666 142.17 0.784C142.842 0.895998 143.402 1.12 143.85 1.456C144.298 1.792 144.634 2.25867 144.858 2.856C145.082 3.45333 145.194 4.23733 145.194 5.208V34.776ZM157.664 35.168C156.059 35.168 154.79 34.7013 153.856 33.768C152.923 32.8347 152.456 31.5653 152.456 29.96V1.008C152.867 0.933331 153.52 0.839998 154.416 0.727997C155.312 0.578664 156.171 0.503997 156.992 0.503997C157.851 0.503997 158.598 0.578664 159.232 0.727997C159.904 0.839998 160.464 1.064 160.912 1.4C161.36 1.736 161.696 2.20267 161.92 2.8C162.144 3.39733 162.256 4.18133 162.256 5.152V27.272H175.08C175.342 27.6827 175.584 28.2427 175.808 28.952C176.032 29.624 176.144 30.3333 176.144 31.08C176.144 32.5733 175.827 33.6373 175.192 34.272C174.558 34.8693 173.718 35.168 172.672 35.168H157.664ZM188.938 2.072C189.573 1.69866 190.525 1.344 191.794 1.008C193.101 0.671997 194.408 0.503997 195.714 0.503997C197.581 0.503997 199.224 0.783998 200.642 1.344C202.098 1.86667 203.032 2.70667 203.442 3.864C204.114 5.80533 204.842 8.064 205.626 10.64C206.41 13.216 207.194 15.8853 207.978 18.648C208.762 21.3733 209.528 24.08 210.274 26.768C211.021 29.4187 211.674 31.7707 212.234 33.824C211.786 34.3467 211.114 34.7573 210.218 35.056C209.322 35.392 208.258 35.56 207.026 35.56C206.13 35.56 205.365 35.4853 204.73 35.336C204.133 35.1867 203.629 34.9627 203.218 34.664C202.845 34.3653 202.528 33.9733 202.266 33.488C202.042 33.0027 201.837 32.4427 201.65 31.808L200.642 27.944H190.506C190.208 29.064 189.909 30.2213 189.61 31.416C189.312 32.6107 189.013 33.768 188.714 34.888C188.192 35.0747 187.632 35.224 187.034 35.336C186.474 35.4853 185.784 35.56 184.962 35.56C183.058 35.56 181.64 35.2427 180.706 34.608C179.81 33.936 179.362 33.0213 179.362 31.864C179.362 31.3413 179.437 30.8187 179.586 30.296C179.736 29.7733 179.904 29.1573 180.09 28.448C180.352 27.44 180.706 26.1893 181.154 24.696C181.64 23.2027 182.162 21.5973 182.722 19.88C183.282 18.1253 183.88 16.3333 184.514 14.504C185.149 12.6747 185.746 10.9573 186.306 9.352C186.866 7.70933 187.37 6.25333 187.818 4.984C188.304 3.71466 188.677 2.744 188.938 2.072ZM195.658 9.296C195.136 10.864 194.538 12.6187 193.866 14.56C193.232 16.464 192.653 18.4053 192.13 20.384H199.074C198.552 18.368 198.01 16.408 197.45 14.504C196.928 12.5627 196.442 10.8267 195.994 9.296H195.658ZM247.021 29.456C247.021 30.6133 246.815 31.472 246.405 32.032C245.994 32.592 245.341 33.1333 244.445 33.656C243.922 33.9547 243.269 34.2533 242.485 34.552C241.701 34.8133 240.842 35.0373 239.909 35.224C238.975 35.448 237.986 35.616 236.941 35.728C235.933 35.84 234.925 35.896 233.917 35.896C231.229 35.896 228.709 35.5413 226.357 34.832C224.005 34.0853 221.951 32.984 220.197 31.528C218.479 30.0347 217.117 28.1867 216.109 25.984C215.101 23.7813 214.597 21.224 214.597 18.312C214.597 15.2507 215.138 12.5813 216.221 10.304C217.341 8.02667 218.797 6.14133 220.589 4.648C222.418 3.11733 224.49 1.97867 226.805 1.232C229.157 0.485332 231.565 0.111999 234.029 0.111999C237.575 0.111999 240.375 0.690666 242.429 1.848C244.519 2.968 245.565 4.44267 245.565 6.272C245.565 7.24267 245.322 8.08267 244.837 8.792C244.351 9.50133 243.791 10.0613 243.157 10.472C242.223 9.912 241.047 9.37067 239.629 8.848C238.247 8.288 236.679 8.008 234.925 8.008C231.789 8.008 229.287 8.904 227.421 10.696C225.591 12.488 224.677 14.9707 224.677 18.144C224.677 19.8613 224.919 21.3547 225.405 22.624C225.927 23.856 226.618 24.8827 227.477 25.704C228.335 26.488 229.325 27.0853 230.445 27.496C231.565 27.8693 232.759 28.056 234.029 28.056C234.85 28.056 235.578 27.9813 236.213 27.832C236.847 27.6827 237.333 27.5147 237.669 27.328V22.064H231.677C231.453 21.6533 231.229 21.112 231.005 20.44C230.818 19.768 230.725 19.0587 230.725 18.312C230.725 16.968 231.023 15.9973 231.621 15.4C232.255 14.8027 233.058 14.504 234.029 14.504H243.493C244.613 14.504 245.471 14.8213 246.069 15.456C246.703 16.0533 247.021 16.912 247.021 18.032V29.456ZM263.264 34.776C262.854 34.888 262.2 35 261.304 35.112C260.446 35.224 259.587 35.28 258.728 35.28C257.87 35.28 257.104 35.2053 256.432 35.056C255.798 34.944 255.256 34.72 254.808 34.384C254.36 34.048 254.024 33.5813 253.8 32.984C253.576 32.3867 253.464 31.6027 253.464 30.632V1.064C253.875 0.989332 254.528 0.895998 255.424 0.784C256.32 0.634666 257.179 0.559999 258 0.559999C258.859 0.559999 259.606 0.634666 260.24 0.784C260.912 0.895998 261.472 1.12 261.92 1.456C262.368 1.792 262.704 2.25867 262.928 2.856C263.152 3.45333 263.264 4.23733 263.264 5.208V34.776Z" fill="#88984A"/>
</svg>
