<svg width="19" height="11" viewBox="0 0 19 11" fill="none" xmlns="http://www.w3.org/2000/svg">
<path d="M13.6105 0.287193C13.2168 -0.100157 12.5836 -0.0950328 12.1963 0.29864C11.8089 0.692312 11.8141 1.32546 12.2077 1.71281L13.6105 0.287193ZM16.7812 6.21281C17.1749 6.60016 17.808 6.59503 18.1954 6.20136C18.5827 5.80769 18.5776 5.17454 18.1839 4.78719L16.7812 6.21281ZM18.1839 6.21281C18.5776 5.82546 18.5827 5.19231 18.1954 4.79864C17.808 4.40497 17.1749 4.39984 16.7812 4.78719L18.1839 6.21281ZM12.2077 9.28719C11.8141 9.67454 11.8089 10.3077 12.1963 10.7014C12.5836 11.095 13.2168 11.1002 13.6105 10.7128L12.2077 9.28719ZM17.4825 6.5C18.0348 6.5 18.4825 6.05228 18.4825 5.5C18.4825 4.94772 18.0348 4.5 17.4825 4.5V6.5ZM1.22131 4.5C0.669029 4.5 0.221313 4.94772 0.221313 5.5C0.221313 6.05228 0.669029 6.5 1.22131 6.5V4.5ZM12.2077 1.71281L16.7812 6.21281L18.1839 4.78719L13.6105 0.287193L12.2077 1.71281ZM16.7812 4.78719L12.2077 9.28719L13.6105 10.7128L18.1839 6.21281L16.7812 4.78719ZM17.4825 4.5H1.22131V6.5H17.4825V4.5Z" fill="#313131"/>
</svg>
