<?xml version="1.0"?>
<svg width="120" height="120" xmlns="http://www.w3.org/2000/svg" xmlns:svg="http://www.w3.org/2000/svg">

 <g class="layer">
  <title>Layer 1</title>
  <path d="m54.83,54.25c0,-1.6 -0.3,-3.18 -0.88,-4.66c-0.59,-1.47 -1.45,-2.81 -2.53,-3.94c-1.08,-1.13 -2.36,-2.03 -3.77,-2.64c-1.41,-0.61 -2.93,-0.93 -4.46,-0.93c-1.52,0 -3.04,0.32 -4.45,0.93c-1.41,0.61 -2.69,1.51 -3.77,2.64c-1.09,1.13 -1.94,2.47 -2.53,3.94c-0.58,1.48 -0.88,3.06 -0.88,4.66l0,28.5c0.02,0.66 -0.09,1.32 -0.32,1.93c-0.23,0.62 -0.58,1.18 -1.02,1.66c-0.44,0.47 -0.96,0.85 -1.54,1.1c-0.59,0.26 -1.21,0.39 -1.84,0.39c-0.63,0 -1.26,-0.13 -1.84,-0.39c-0.58,-0.25 -1.11,-0.63 -1.55,-1.1c-0.44,-0.48 -0.79,-1.04 -1.01,-1.66c-0.23,-0.61 -0.34,-1.27 -0.32,-1.93l0,-28.51c0,-5.85 2.22,-11.45 6.17,-15.59c3.96,-4.13 9.32,-6.45 14.91,-6.45c5.59,0 10.96,2.32 14.91,6.45c3.96,4.14 6.18,9.74 6.18,15.59l-5.61,0l-3.85,7.46l0,-7.45z" fill="#F0B70D" id="svg_2"/>
  <path d="m97,82.75c0,1.31 -0.5,2.56 -1.38,3.49c-0.89,0.93 -2.09,1.45 -3.34,1.45l-23.55,0c-3.68,-0.01 -7.22,-1.54 -9.82,-4.27c-2.61,-2.72 -4.07,-6.42 -4.08,-10.27l0,-2.8l5.59,-10.65l3.86,0l0,12.76c0,1.42 0.54,2.79 1.5,3.79c0.96,1.01 2.26,1.57 3.62,1.57l22.86,0c1.25,0 2.46,0.52 3.35,1.44c0.88,0.93 1.39,2.18 1.39,3.49z" fill="#BE9C25" id="svg_3"/>
  <path d="m97,40.24l0,1.6c0.01,2.06 -0.38,4.11 -1.14,6.02c-0.75,1.9 -1.86,3.63 -3.26,5.09l-17.99,18.82c-0.72,-1.65 -0.93,-3.48 -0.62,-5.26c0.31,-1.77 1.13,-3.4 2.35,-4.68l20.66,-21.59z" fill="#88984A" id="svg_4"/>
  <path d="m70.24,50.45l10.89,11.38c1.22,1.28 2.03,2.91 2.34,4.69c0.31,1.77 0.1,3.6 -0.61,5.25l-10.29,-10.78c-0.61,-0.63 -1.08,-1.37 -1.41,-2.19c-0.33,-0.82 -0.49,-1.7 -0.49,-2.59c0.01,-1.93 -0.13,-3.86 -0.42,-5.76" fill="#88984A" id="svg_5"/>
  <path d="m85.03,40.25l-3.33,3.48l3.33,3.48l3.33,-3.48l-3.33,-3.48z" fill="#88984A" id="svg_6"/>
  <path d="m78.86,46.7l-3.33,3.48l3.33,3.48l3.33,-3.48l-3.33,-3.48z" fill="#88984A" id="svg_7"/>
 </g>
</svg>