<svg width="23" height="19" viewBox="0 0 23 19" fill="none" xmlns="http://www.w3.org/2000/svg">
<path d="M22.0077 0.317727C21.8306 0.177003 21.6232 0.0792436 21.4019 0.0321181C21.1806 -0.0150075 20.9515 -0.010217 20.7323 0.0461136L14.0621 1.76187C13.1782 1.98923 12.5603 2.78614 12.5603 3.69882V16.422C12.5603 17.7282 13.7922 18.6839 15.0574 18.3592L21.4881 16.709C21.8074 16.6273 22.0902 16.441 22.2914 16.1799C22.4926 15.9188 22.6006 15.5979 22.5982 15.2683V1.47504C22.5946 1.24987 22.5395 1.02852 22.4371 0.827927C22.3348 0.627333 22.1879 0.452814 22.0077 0.317727ZM10.1985 3.69993C10.1985 2.78674 9.5799 1.98952 8.69534 1.76264L2.00282 0.0461136C1.78706 -0.00384642 1.56291 -0.00540141 1.34647 0.0415609C1.13004 0.0885231 0.926691 0.182837 0.751037 0.317727C0.572043 0.457669 0.427769 0.63704 0.32945 0.841872C0.231131 1.0467 0.181421 1.27147 0.184192 1.49865V15.2683C0.184441 15.5959 0.293651 15.9141 0.494623 16.1728C0.695594 16.4315 0.976909 16.6159 1.29426 16.6972L7.69769 18.3533C8.96386 18.6807 10.1985 17.7248 10.1985 16.417V3.69993Z" fill="#88984A"/>
</svg>
