<svg width="20" height="19" viewBox="0 0 20 19" fill="none" xmlns="http://www.w3.org/2000/svg">
<path d="M19.1841 15.9434V10.4339C19.1841 8.63171 19.1841 7.73068 18.8136 6.93422C18.443 6.13776 17.7453 5.53912 16.3498 4.34183L15.2943 3.43618C12.6243 1.14539 11.2894 0 9.68408 0C8.07879 0 6.74383 1.14539 4.0739 3.43618L3.01834 4.34183C1.62289 5.53912 0.925166 6.13776 0.554624 6.93422C0.184082 7.73068 0.184082 8.63171 0.184082 10.4339V15.9434C0.184082 16.8929 0.184082 17.3676 0.34478 17.7421C0.559047 18.2414 0.970028 18.6381 1.4873 18.8449C1.87527 19 2.3671 19 3.35075 19H3.7026C4.35702 19 4.68424 19 4.9527 18.9306C5.68123 18.7421 6.25028 18.1929 6.44548 17.4896C6.51742 17.2305 6.51742 16.9147 6.51742 16.283V13.9057C6.51742 12.2175 7.93513 10.8491 9.68408 10.8491C11.433 10.8491 12.8507 12.2175 12.8507 13.9057V16.283C12.8507 16.9147 12.8507 17.2305 12.9226 17.4896C13.1179 18.1929 13.687 18.7421 14.4155 18.9306C14.6839 19 15.0112 19 15.6656 19H16.0174C17.0011 19 17.4929 19 17.8809 18.8449C18.3981 18.6381 18.8091 18.2414 19.0234 17.7421C19.1841 17.3676 19.1841 16.8929 19.1841 15.9434Z" fill="#88984A"/>
</svg>
