<svg width="19" height="18" viewBox="0 0 19 18" fill="none" xmlns="http://www.w3.org/2000/svg">
<path d="M16.4004 0H2.40039C1.30039 0 0.400391 0.9 0.400391 2V16C0.400391 17.1 1.30039 18 2.40039 18H16.4004C17.5004 18 18.4004 17.1 18.4004 16V2C18.4004 0.9 17.5004 0 16.4004 0ZM10.4004 14H5.40039C4.85039 14 4.40039 13.55 4.40039 13C4.40039 12.45 4.85039 12 5.40039 12H10.4004C10.9504 12 11.4004 12.45 11.4004 13C11.4004 13.55 10.9504 14 10.4004 14ZM13.4004 10H5.40039C4.85039 10 4.40039 9.55 4.40039 9C4.40039 8.45 4.85039 8 5.40039 8H13.4004C13.9504 8 14.4004 8.45 14.4004 9C14.4004 9.55 13.9504 10 13.4004 10ZM13.4004 6H5.40039C4.85039 6 4.40039 5.55 4.40039 5C4.40039 4.45 4.85039 4 5.40039 4H13.4004C13.9504 4 14.4004 4.45 14.4004 5C14.4004 5.55 13.9504 6 13.4004 6Z" fill="#88984A"/>
</svg>
