<svg width="20" height="22" viewBox="0 0 20 22" fill="none" xmlns="http://www.w3.org/2000/svg">
<path fill-rule="evenodd" clip-rule="evenodd" d="M9.99933 0C6.29577 0 3.29344 2.95492 3.29344 6.6V9.42854C3.29344 10.4486 2.9573 11.4411 2.33546 12.2572L0.915437 14.1206C0.372137 14.8336 0.530921 15.81 1.36232 16.1631C2.85845 16.7985 5.61459 17.6 9.99933 17.6C14.3841 17.6 17.1402 16.7985 18.6363 16.1631C19.4677 15.81 19.6265 14.8336 19.0832 14.1206L17.6631 12.2572C17.0414 11.4411 16.7052 10.4486 16.7052 9.42854V6.6C16.7052 2.95492 13.7029 0 9.99933 0ZM9.99932 21.45C8.60685 21.45 7.4522 20.4473 7.24007 19.1356C8.07742 19.208 8.99568 19.25 9.99932 19.25C11.0029 19.25 11.9212 19.208 12.7586 19.1356C12.5464 20.4473 11.3918 21.45 9.99932 21.45Z" fill="#88984A"/>
</svg>
