<svg width="23" height="21" viewBox="0 0 23 21" fill="none" xmlns="http://www.w3.org/2000/svg">
<path fill-rule="evenodd" clip-rule="evenodd" d="M13.8917 1.88114C13.4024 -0.627045 9.81392 -0.627045 9.32456 1.88114C9.0268 3.40739 7.34442 4.21758 5.96549 3.49877C3.69943 2.31752 1.46202 5.12314 3.11791 7.06953C4.12554 8.25393 3.71002 10.0744 2.28829 10.7044C-0.0481169 11.7395 0.750405 15.238 3.30458 15.157C4.85883 15.1077 6.02307 16.5676 5.62913 18.0718C4.98173 20.5439 8.21488 22.101 9.74405 20.0535C10.6745 18.8076 12.5418 18.8076 13.4722 20.0535C15.0014 22.101 18.2345 20.5439 17.5871 18.0718C17.1932 16.5676 18.3575 15.1077 19.9117 15.157C22.4659 15.238 23.2644 11.7395 20.9279 10.7044C19.5062 10.0744 19.0907 8.25393 20.0984 7.06953C21.7543 5.12314 19.5168 2.31752 17.2507 3.49877C15.8718 4.21758 14.1895 3.40739 13.8917 1.88114ZM11.6082 14.1918C13.4172 14.1918 14.8836 12.7255 14.8836 10.9165C14.8836 9.10757 13.4172 7.64121 11.6082 7.64121C9.79929 7.64121 8.33293 9.10757 8.33293 10.9165C8.33293 12.7255 9.79929 14.1918 11.6082 14.1918Z" fill="#88984A"/>
</svg>
